<svg xmlns="http://www.w3.org/2000/svg" viewBox="0 0 268.03 268.02"><defs><style>.cls-1{fill:#fff;}</style></defs><g id="Layer_2" data-name="Layer 2"><g id="Layer_1-2" data-name="Layer 1"><path d="M173.65,98.41l-89.77,2.16a17.33,17.33,0,0,1-6.2-.61,5,5,0,0,1-2.87-2.76,9.91,9.91,0,0,1-.62-6.2,6.44,6.44,0,0,1,3.19-4.59c1.13-.61,3.13-1,6-1.12h.29l89.62-2.17a17.43,17.43,0,0,1,6.35.62,4.92,4.92,0,0,1,2.87,2.75,10.05,10.05,0,0,1,.61,6.17A6.47,6.47,0,0,1,180,97.29a8.41,8.41,0,0,1-2.39.82A26,26,0,0,1,173.65,98.41Z"/><path d="M182.19,71.17,82.34,73.06a21.18,21.18,0,0,1-6.9-.64,5.35,5.35,0,0,1-3.2-2.77,8.93,8.93,0,0,1-.71-6.2,6.44,6.44,0,0,1,3.53-4.58q1.88-.9,6.69-1.1h.32l99.7-1.89a21.51,21.51,0,0,1,7,.64A5.32,5.32,0,0,1,192,59.28a9.16,9.16,0,0,1,.7,6.17,6.48,6.48,0,0,1-3.52,4.62,9.87,9.87,0,0,1-2.66.81A30.85,30.85,0,0,1,182.19,71.17Z"/><path d="M182.19,218.86l-99.85,1.88a21.18,21.18,0,0,1-6.9-.64,5.35,5.35,0,0,1-3.2-2.77,8.93,8.93,0,0,1-.71-6.2,6.44,6.44,0,0,1,3.53-4.57q1.88-.92,6.69-1.11h.32l99.7-1.89a21.51,21.51,0,0,1,7,.64A5.32,5.32,0,0,1,192,207a9.16,9.16,0,0,1,.7,6.17,6.46,6.46,0,0,1-3.52,4.62,9.87,9.87,0,0,1-2.66.82A34.24,34.24,0,0,1,182.19,218.86Z"/><path d="M134,268C60.12,268,0,207.91,0,134S60.12,0,134,0,268,60.12,268,134,207.91,268,134,268Zm0-255.71A121.71,121.71,0,1,0,255.72,134,121.84,121.84,0,0,0,134,12.31Z"/><path class="cls-1" d="M161.49,213.55a1.19,1.19,0,0,1,.83.28,1,1,0,0,1,.32.74,1,1,0,0,1-.32.75,1.36,1.36,0,0,1-1.65,0,1,1,0,0,1-.32-.75,1,1,0,0,1,.32-.74A1.18,1.18,0,0,1,161.49,213.55Z"/><path class="cls-1" d="M170.55,214.33h.09a.61.61,0,0,1,.45.15.6.6,0,0,1,.14.44.65.65,0,0,1-.15.47.8.8,0,0,1-.53.14h-.84a.43.43,0,0,1-.24-.07.19.19,0,0,1-.09-.17v-.38a1.66,1.66,0,0,1-.69.56,2.19,2.19,0,0,1-.94.19,2.41,2.41,0,0,1-1.8-.73,2.47,2.47,0,0,1-.72-1.82,2.59,2.59,0,0,1,.73-1.89,2.49,2.49,0,0,1,1.86-.75,2.21,2.21,0,0,1,.76.13,2.41,2.41,0,0,1,.67.36v-1.38h-.72a.77.77,0,0,1-.54-.15.59.59,0,0,1-.16-.46.59.59,0,0,1,.16-.47.83.83,0,0,1,.54-.14h1.7a.32.32,0,0,1,.25.08.39.39,0,0,1,.07.28ZM168,211.64a1.14,1.14,0,0,0-.89.4,1.68,1.68,0,0,0,0,2.05,1.18,1.18,0,0,0,1.79,0,1.68,1.68,0,0,0,0-2.05A1.15,1.15,0,0,0,168,211.64Z"/><path class="cls-1" d="M173.46,213.32a1.48,1.48,0,0,0,.55.91,1.77,1.77,0,0,0,1.08.3,3,3,0,0,0,1.34-.33,3.3,3.3,0,0,1,.8-.33.4.4,0,0,1,.33.15.56.56,0,0,1,.13.39c0,.34-.25.63-.76.88a4.2,4.2,0,0,1-1.88.37,3.07,3.07,0,0,1-2.15-.74,2.62,2.62,0,0,1,0-3.83,3.12,3.12,0,0,1,2.15-.74,2.8,2.8,0,0,1,2,.7,2.19,2.19,0,0,1,.78,1.71.54.54,0,0,1-.16.44,1.15,1.15,0,0,1-.64.12Zm2.95-.85a1.23,1.23,0,0,0-.48-.79,1.66,1.66,0,0,0-1-.28,1.6,1.6,0,0,0-1,.27,1.34,1.34,0,0,0-.5.8Z"/><path class="cls-1" d="M180.71,211.67l1,2.33,1-2.33h-.09a.59.59,0,0,1-.45-.16.6.6,0,0,1-.15-.44.59.59,0,0,1,.15-.46.76.76,0,0,1,.54-.14H184a.79.79,0,0,1,.54.14.59.59,0,0,1,.15.46.6.6,0,0,1-.15.44.58.58,0,0,1-.45.16H184l-1.63,3.45a1.2,1.2,0,0,1-.32.46.91.91,0,0,1-.45.08.72.72,0,0,1-.74-.46.41.41,0,0,1,0-.08l-1.53-3.45h-.09a.59.59,0,0,1-.45-.16.61.61,0,0,1-.16-.44.59.59,0,0,1,.16-.46.79.79,0,0,1,.54-.14h1.39a.79.79,0,0,1,.54.14.59.59,0,0,1,.16.46.61.61,0,0,1-.16.44.58.58,0,0,1-.45.16Z"/></g></g></svg>