<svg xmlns="http://www.w3.org/2000/svg" viewBox="0 0 121.7 202.8"><defs><style>.cls-1{fill:#424242;}.cls-2{fill:#47af48;}</style></defs><g id="Layer_2" data-name="Layer 2"><g id="Layer_1-2" data-name="Layer 1"><path class="cls-1" d="M11.6,193.3a5.33,5.33,0,0,1,3.71,1.28,4.64,4.64,0,0,1,0,6.66,5.24,5.24,0,0,1-3.71,1.29,5.24,5.24,0,0,1-3.69-1.29,4.6,4.6,0,0,1,0-6.65A5.29,5.29,0,0,1,11.6,193.3Z"/><path class="cls-1" d="M52.2,196.81h.42a2.65,2.65,0,0,1,2,.67,2.69,2.69,0,0,1,.66,2,2.72,2.72,0,0,1-.69,2.09,3.54,3.54,0,0,1-2.37.63H48.45a1.92,1.92,0,0,1-1.09-.27.93.93,0,0,1-.39-.78v-1.72a7.85,7.85,0,0,1-3.09,2.52,10,10,0,0,1-4.24.87,10.87,10.87,0,0,1-8-3.27,11.18,11.18,0,0,1-3.24-8.19,11.61,11.61,0,0,1,3.28-8.46A11.09,11.09,0,0,1,40,179.52a10.41,10.41,0,0,1,3.4.57,10.88,10.88,0,0,1,3,1.63v-6.2H43.12a3.54,3.54,0,0,1-2.4-.65,2.69,2.69,0,0,1-.72-2.08,2.66,2.66,0,0,1,.72-2.08,3.54,3.54,0,0,1,2.4-.64h7.63a1.49,1.49,0,0,1,1.14.34,2,2,0,0,1,.31,1.28ZM40.69,184.74a5,5,0,0,0-4,1.81,6.64,6.64,0,0,0-1.58,4.57,6.85,6.85,0,0,0,1.56,4.65,5.35,5.35,0,0,0,8,0,6.79,6.79,0,0,0,1.59-4.64,6.68,6.68,0,0,0-1.6-4.56A5.08,5.08,0,0,0,40.69,184.74Z"/><path class="cls-1" d="M65.22,192.3a6.78,6.78,0,0,0,2.47,4.07,8,8,0,0,0,4.87,1.35,13.34,13.34,0,0,0,6-1.49,14,14,0,0,1,3.58-1.48,1.86,1.86,0,0,1,1.48.68,2.53,2.53,0,0,1,.58,1.73c0,1.53-1.13,2.86-3.41,4a19.14,19.14,0,0,1-8.44,1.67,13.93,13.93,0,0,1-9.65-3.34,11.74,11.74,0,0,1,0-17.15A13.93,13.93,0,0,1,72.36,179a12.69,12.69,0,0,1,8.79,3.12,9.94,9.94,0,0,1,3.48,7.67,2.42,2.42,0,0,1-.7,2,5.16,5.16,0,0,1-2.88.54Zm13.22-3.83a5.32,5.32,0,0,0-2.14-3.53,7.47,7.47,0,0,0-4.5-1.25,7.1,7.1,0,0,0-4.31,1.19,6.24,6.24,0,0,0-2.27,3.59Z"/><path class="cls-1" d="M97.73,184.89l4.42,10.45,4.63-10.45h-.39a2.79,2.79,0,0,1-2-.69,2.71,2.71,0,0,1-.69-2,2.64,2.64,0,0,1,.69-2.06,3.71,3.71,0,0,1,2.42-.61h5.77a3.6,3.6,0,0,1,2.41.62,2.62,2.62,0,0,1,.71,2.05,2.42,2.42,0,0,1-2.7,2.7h-.42l-7.29,15.48a5,5,0,0,1-1.46,2,4.11,4.11,0,0,1-2,.38,3.26,3.26,0,0,1-3.31-2.06,3.38,3.38,0,0,0-.15-.37L91.5,184.89h-.39a2.77,2.77,0,0,1-2-.69,2.71,2.71,0,0,1-.7-2,2.6,2.6,0,0,1,.71-2.06,3.71,3.71,0,0,1,2.41-.61h6.23a3.6,3.6,0,0,1,2.4.62,2.59,2.59,0,0,1,.71,2.05,2.67,2.67,0,0,1-.69,2,2.75,2.75,0,0,1-2,.69Z"/><path class="cls-1" d="M110.92,15.31,11.07,17.2a21.18,21.18,0,0,1-6.9-.64A5.36,5.36,0,0,1,1,13.79a9,9,0,0,1-.7-6.2A6.41,6.41,0,0,1,3.79,3q1.88-.9,6.69-1.1h.32L110.5,0a21.51,21.51,0,0,1,7,.64,5.32,5.32,0,0,1,3.21,2.76,9.1,9.1,0,0,1,.69,6.17,6.44,6.44,0,0,1-3.51,4.62,9.87,9.87,0,0,1-2.66.81A30.85,30.85,0,0,1,110.92,15.31Z"/><path class="cls-2" d="M99.7,39.62,9.93,41.78a17.06,17.06,0,0,1-6.2-.62A4.93,4.93,0,0,1,.86,38.4a9.87,9.87,0,0,1-.62-6.19,6.41,6.41,0,0,1,3.18-4.59,15.31,15.31,0,0,1,6-1.12h.29l89.63-2.16a17.37,17.37,0,0,1,6.34.62,4.92,4.92,0,0,1,2.88,2.74,10.08,10.08,0,0,1,.6,6.18A6.39,6.39,0,0,1,106,38.49a8.22,8.22,0,0,1-2.39.83A27.51,27.51,0,0,1,99.7,39.62Z"/><path class="cls-1" d="M110.92,163l-99.85,1.88a21.18,21.18,0,0,1-6.9-.64A5.36,5.36,0,0,1,1,161.47a9,9,0,0,1-.7-6.2,6.42,6.42,0,0,1,3.53-4.57q1.88-.91,6.69-1.11h.32l99.7-1.89a21.51,21.51,0,0,1,7,.64,5.32,5.32,0,0,1,3.21,2.76,9.1,9.1,0,0,1,.69,6.17,6.42,6.42,0,0,1-3.51,4.62,9.87,9.87,0,0,1-2.66.82A34.24,34.24,0,0,1,110.92,163Z"/><path class="cls-1" d="M26.19,51.54a2.72,2.72,0,0,1,.91-1.42,2.51,2.51,0,0,1,1.59-.48,2.14,2.14,0,0,1,1.87.79,5,5,0,0,1,.56,2.73v4a3.27,3.27,0,0,1-.61,2.19,2.33,2.33,0,0,1-1.87.7,2.55,2.55,0,0,1-1.5-.41A4.7,4.7,0,0,1,25.85,58,6.16,6.16,0,0,0,23.3,55.6a8.65,8.65,0,0,0-3.86-.79,6.22,6.22,0,0,0-4.65,1.86,7.22,7.22,0,0,0,.06,9.63,6.85,6.85,0,0,0,5,1.84,11.49,11.49,0,0,0,5.69-1.59A12.22,12.22,0,0,1,29,65a1.87,1.87,0,0,1,1.49.69,2.56,2.56,0,0,1,.6,1.74q0,2.28-3.46,4.08a17.61,17.61,0,0,1-8.22,1.79A13.76,13.76,0,0,1,9.89,70a10.9,10.9,0,0,1-3.68-8.49A11,11,0,0,1,9.85,53,13,13,0,0,1,19,49.64a14.7,14.7,0,0,1,3.64.46A15,15,0,0,1,26.19,51.54Z"/><path class="cls-1" d="M59,67.29h.32a2.77,2.77,0,0,1,2,.67,3.36,3.36,0,0,1,0,4.07,3.48,3.48,0,0,1-2.35.63H53A3.52,3.52,0,0,1,50.7,72,2.62,2.62,0,0,1,50,70a2.65,2.65,0,0,1,.69-2,2.89,2.89,0,0,1,2.08-.67H53v-7a7.81,7.81,0,0,0-.81-4.14,3,3,0,0,0-2.71-1.23,4.16,4.16,0,0,0-3.29,1.47A5.74,5.74,0,0,0,45,60.28v7h.29a2.81,2.81,0,0,1,2.06.67,3.35,3.35,0,0,1,0,4.07,3.47,3.47,0,0,1-2.33.63h-6A3.46,3.46,0,0,1,36.61,72,2.66,2.66,0,0,1,35.9,70a2.69,2.69,0,0,1,.68-2,2.82,2.82,0,0,1,2.07-.67h.29V55.54h-.42a2.72,2.72,0,0,1-2-.67,3.24,3.24,0,0,1,0-4,3.55,3.55,0,0,1,2.38-.63h4.12a1.7,1.7,0,0,1,1,.26.93.93,0,0,1,.35.78v1.89a7.25,7.25,0,0,1,2.85-2.63,8.75,8.75,0,0,1,4-.89A7,7,0,0,1,57.11,52Q59,54.36,59,59.18Z"/><path class="cls-1" d="M11.13,94.43,22.5,99.82a4.05,4.05,0,0,1,1.34.9,1.58,1.58,0,0,1,.38,1.07,1.56,1.56,0,0,1-1.65,1.65,2.59,2.59,0,0,1-.69-.11A7.11,7.11,0,0,1,21,103L7.2,96.64l-.33-.14C5.64,95.93,5,95.27,5,94.5S5.67,93,7,92.44l.14-.09L21,85.89a8.41,8.41,0,0,1,1-.41,2.28,2.28,0,0,1,.58-.1A1.56,1.56,0,0,1,24.22,87a1.66,1.66,0,0,1-.39,1.09A4.22,4.22,0,0,1,22.5,89Z"/><path class="cls-1" d="M43.57,83.74,33.34,105.65a5,5,0,0,1-.88,1.43,1.27,1.27,0,0,1-.94.41A2.17,2.17,0,0,1,30.1,107a1.58,1.58,0,0,1-.62-1.26,4.54,4.54,0,0,1,.47-1.57l0-.07L40.2,82.21a5.19,5.19,0,0,1,.89-1.47,1.28,1.28,0,0,1,.94-.4,2.17,2.17,0,0,1,1.41.51,1.53,1.53,0,0,1,.63,1.25,2.37,2.37,0,0,1-.1.67A9.3,9.3,0,0,1,43.57,83.74Z"/><path class="cls-1" d="M62,94.43,50.57,89a4.15,4.15,0,0,1-1.32-.91,1.79,1.79,0,0,1,0-2.28,1.56,1.56,0,0,1,1.17-.46,2.32,2.32,0,0,1,.64.11,8.13,8.13,0,0,1,1,.4L66,92.35l.14.09C67.38,93,68,93.72,68,94.5s-.62,1.45-1.86,2a1.43,1.43,0,0,1-.28.14L52.07,103a6.47,6.47,0,0,1-.9.35,2.67,2.67,0,0,1-.71.11,1.55,1.55,0,0,1-1.17-.45,1.65,1.65,0,0,1-.43-1.2,1.62,1.62,0,0,1,.37-1.07,4,4,0,0,1,1.34-.9Z"/><path class="cls-1" d="M14.37,132.53v6.6h3.08a3.58,3.58,0,0,1,2.37.63,2.62,2.62,0,0,1,.71,2.07,2.53,2.53,0,0,1-.7,2,3.62,3.62,0,0,1-2.38.61H7.16a3.6,3.6,0,0,1-2.36-.6,2.57,2.57,0,0,1-.68-2,2.69,2.69,0,0,1,.69-2.07,3.5,3.5,0,0,1,2.35-.63H8.59V117.69H8.2a2.65,2.65,0,0,1-2-.68,2.69,2.69,0,0,1-.67-2,2.65,2.65,0,0,1,.67-2,3.6,3.6,0,0,1,2.36-.6h3.74a1.71,1.71,0,0,1,1,.25.86.86,0,0,1,.34.74v1.75a8.13,8.13,0,0,1,3-2.49,9.1,9.1,0,0,1,4-.84A11.32,11.32,0,0,1,28.93,115a10.68,10.68,0,0,1,3.28,8A11.6,11.6,0,0,1,29,131.35a10.63,10.63,0,0,1-8,3.31,12.17,12.17,0,0,1-3.68-.54A9,9,0,0,1,14.37,132.53ZM20,117a5,5,0,0,0-4,1.77,7.39,7.39,0,0,0,0,9.08,5,5,0,0,0,4,1.77,5.06,5.06,0,0,0,4-1.78,7.39,7.39,0,0,0,0-9.07A5.07,5.07,0,0,0,20,117Z"/></g></g></svg>