<svg xmlns="http://www.w3.org/2000/svg" viewBox="0 0 268.03 268.02"><g id="Layer_2" data-name="Layer 2"><g id="Layer_1-2" data-name="Layer 1"><path d="M173.65,98.41l-89.77,2.16a17.33,17.33,0,0,1-6.2-.61,5,5,0,0,1-2.87-2.76,9.91,9.91,0,0,1-.62-6.2,6.44,6.44,0,0,1,3.19-4.59c1.13-.61,3.13-1,6-1.12h.29l89.62-2.17a17.43,17.43,0,0,1,6.35.62,4.92,4.92,0,0,1,2.87,2.75,10.05,10.05,0,0,1,.61,6.17A6.47,6.47,0,0,1,180,97.29a8.41,8.41,0,0,1-2.39.82A26,26,0,0,1,173.65,98.41Z"/><path d="M182.19,71.17,82.34,73.06a21.18,21.18,0,0,1-6.9-.64,5.35,5.35,0,0,1-3.2-2.77,8.93,8.93,0,0,1-.71-6.2,6.44,6.44,0,0,1,3.53-4.58q1.88-.9,6.69-1.1h.32l99.7-1.89a21.51,21.51,0,0,1,7,.64A5.32,5.32,0,0,1,192,59.28a9.16,9.16,0,0,1,.7,6.17,6.48,6.48,0,0,1-3.52,4.62,9.87,9.87,0,0,1-2.66.81A30.85,30.85,0,0,1,182.19,71.17Z"/><path d="M182.19,218.86l-99.85,1.88a21.18,21.18,0,0,1-6.9-.64,5.35,5.35,0,0,1-3.2-2.77,8.93,8.93,0,0,1-.71-6.2,6.44,6.44,0,0,1,3.53-4.57q1.88-.92,6.69-1.11h.32l99.7-1.89a21.51,21.51,0,0,1,7,.64A5.32,5.32,0,0,1,192,207a9.16,9.16,0,0,1,.7,6.17,6.46,6.46,0,0,1-3.52,4.62,9.87,9.87,0,0,1-2.66.82A34.24,34.24,0,0,1,182.19,218.86Z"/><path d="M134,268C60.12,268,0,207.91,0,134S60.12,0,134,0,268,60.12,268,134,207.91,268,134,268Zm0-255.71A121.71,121.71,0,1,0,255.72,134,121.84,121.84,0,0,0,134,12.31Z"/></g></g></svg>